<?xml version="1.0" encoding="utf-8" standalone="no"?>
<!DOCTYPE svg PUBLIC "-//W3C//DTD SVG 1.1//EN"
  "http://www.w3.org/Graphics/SVG/1.1/DTD/svg11.dtd">
<!-- Created with matplotlib (https://matplotlib.org/) -->
<svg height="345.6pt" version="1.1" viewBox="0 0 460.8 345.6" width="460.8pt" xmlns="http://www.w3.org/2000/svg" xmlns:xlink="http://www.w3.org/1999/xlink">
 <defs>
  <style type="text/css">
*{stroke-linecap:butt;stroke-linejoin:round;}
  </style>
 </defs>
 <g id="figure_1">
  <g id="patch_1">
   <path d="M 0 345.6 
L 460.8 345.6 
L 460.8 0 
L 0 0 
z
" style="fill:#ffffff;"/>
  </g>
  <g id="axes_1">
   <g id="patch_2">
    <path d="M 57.6 307.584 
L 414.72 307.584 
L 414.72 41.472 
L 57.6 41.472 
z
" style="fill:#ffffff;"/>
   </g>
   <g id="PathCollection_1">
    <defs>
     <path d="M 0 1.581139 
C 0.419323 1.581139 0.821528 1.41454 1.118034 1.118034 
C 1.41454 0.821528 1.581139 0.419323 1.581139 0 
C 1.581139 -0.419323 1.41454 -0.821528 1.118034 -1.118034 
C 0.821528 -1.41454 0.419323 -1.581139 0 -1.581139 
C -0.419323 -1.581139 -0.821528 -1.41454 -1.118034 -1.118034 
C -1.41454 -0.821528 -1.581139 -0.419323 -1.581139 0 
C -1.581139 0.419323 -1.41454 0.821528 -1.118034 1.118034 
C -0.821528 1.41454 -0.419323 1.581139 0 1.581139 
z
" id="mfd4c2959ab" style="stroke:#1f77b4;"/>
    </defs>
    <g clip-path="url(#p8a921b4910)">
     <use style="fill:#1f77b4;stroke:#1f77b4;" x="73.838779" xlink:href="#mfd4c2959ab" y="53.578453"/>
     <use style="fill:#1f77b4;stroke:#1f77b4;" x="398.481221" xlink:href="#mfd4c2959ab" y="295.477547"/>
     <use style="fill:#1f77b4;stroke:#1f77b4;" x="398.481221" xlink:href="#mfd4c2959ab" y="295.477547"/>
     <use style="fill:#1f77b4;stroke:#1f77b4;" x="73.838779" xlink:href="#mfd4c2959ab" y="53.578453"/>
     <use style="fill:#1f77b4;stroke:#1f77b4;" x="257.992679" xlink:href="#mfd4c2959ab" y="290.590697"/>
     <use style="fill:#1f77b4;stroke:#1f77b4;" x="396.582727" xlink:href="#mfd4c2959ab" y="293.034122"/>
     <use style="fill:#1f77b4;stroke:#1f77b4;" x="87.128236" xlink:href="#mfd4c2959ab" y="70.682429"/>
     <use style="fill:#1f77b4;stroke:#1f77b4;" x="119.402631" xlink:href="#mfd4c2959ab" y="112.220658"/>
     <use style="fill:#1f77b4;stroke:#1f77b4;" x="187.748408" xlink:href="#mfd4c2959ab" y="200.183965"/>
     <use style="fill:#1f77b4;stroke:#1f77b4;" x="119.402631" xlink:href="#mfd4c2959ab" y="112.220658"/>
     <use style="fill:#1f77b4;stroke:#1f77b4;" x="87.128236" xlink:href="#mfd4c2959ab" y="70.682429"/>
     <use style="fill:#1f77b4;stroke:#1f77b4;" x="147.880038" xlink:href="#mfd4c2959ab" y="148.872035"/>
     <use style="fill:#1f77b4;stroke:#1f77b4;" x="147.880038" xlink:href="#mfd4c2959ab" y="148.872035"/>
     <use style="fill:#1f77b4;stroke:#1f77b4;" x="106.113174" xlink:href="#mfd4c2959ab" y="95.116681"/>
     <use style="fill:#1f77b4;stroke:#1f77b4;" x="240.906235" xlink:href="#mfd4c2959ab" y="268.59987"/>
     <use style="fill:#1f77b4;stroke:#1f77b4;" x="248.50021" xlink:href="#mfd4c2959ab" y="278.373571"/>
     <use style="fill:#1f77b4;stroke:#1f77b4;" x="102.316186" xlink:href="#mfd4c2959ab" y="90.229831"/>
     <use style="fill:#1f77b4;stroke:#1f77b4;" x="128.8951" xlink:href="#mfd4c2959ab" y="124.437784"/>
     <use style="fill:#1f77b4;stroke:#1f77b4;" x="96.620705" xlink:href="#mfd4c2959ab" y="82.899555"/>
     <use style="fill:#1f77b4;stroke:#1f77b4;" x="220.022803" xlink:href="#mfd4c2959ab" y="241.722193"/>
     <use style="fill:#1f77b4;stroke:#1f77b4;" x="239.007741" xlink:href="#mfd4c2959ab" y="266.156445"/>
     <use style="fill:#1f77b4;stroke:#1f77b4;" x="227.616778" xlink:href="#mfd4c2959ab" y="251.495894"/>
     <use style="fill:#1f77b4;stroke:#1f77b4;" x="136.489075" xlink:href="#mfd4c2959ab" y="134.211484"/>
     <use style="fill:#1f77b4;stroke:#1f77b4;" x="172.560457" xlink:href="#mfd4c2959ab" y="180.636563"/>
     <use style="fill:#1f77b4;stroke:#1f77b4;" x="134.590581" xlink:href="#mfd4c2959ab" y="131.768059"/>
     <use style="fill:#1f77b4;stroke:#1f77b4;" x="208.63184" xlink:href="#mfd4c2959ab" y="227.061642"/>
     <use style="fill:#1f77b4;stroke:#1f77b4;" x="182.052926" xlink:href="#mfd4c2959ab" y="192.853689"/>
     <use style="fill:#1f77b4;stroke:#1f77b4;" x="225.718284" xlink:href="#mfd4c2959ab" y="249.052468"/>
     <use style="fill:#1f77b4;stroke:#1f77b4;" x="172.560457" xlink:href="#mfd4c2959ab" y="180.636563"/>
     <use style="fill:#1f77b4;stroke:#1f77b4;" x="106.113174" xlink:href="#mfd4c2959ab" y="95.116681"/>
     <use style="fill:#1f77b4;stroke:#1f77b4;" x="220.022803" xlink:href="#mfd4c2959ab" y="241.722193"/>
     <use style="fill:#1f77b4;stroke:#1f77b4;" x="128.8951" xlink:href="#mfd4c2959ab" y="124.437784"/>
     <use style="fill:#1f77b4;stroke:#1f77b4;" x="96.620705" xlink:href="#mfd4c2959ab" y="82.899555"/>
     <use style="fill:#1f77b4;stroke:#1f77b4;" x="164.966482" xlink:href="#mfd4c2959ab" y="170.862862"/>
     <use style="fill:#1f77b4;stroke:#1f77b4;" x="157.372507" xlink:href="#mfd4c2959ab" y="161.089161"/>
     <use style="fill:#1f77b4;stroke:#1f77b4;" x="210.530334" xlink:href="#mfd4c2959ab" y="229.505067"/>
     <use style="fill:#1f77b4;stroke:#1f77b4;" x="164.966482" xlink:href="#mfd4c2959ab" y="170.862862"/>
     <use style="fill:#1f77b4;stroke:#1f77b4;" x="254.195691" xlink:href="#mfd4c2959ab" y="285.703846"/>
     <use style="fill:#1f77b4;stroke:#1f77b4;" x="202.936358" xlink:href="#mfd4c2959ab" y="219.731366"/>
     <use style="fill:#1f77b4;stroke:#1f77b4;" x="202.936358" xlink:href="#mfd4c2959ab" y="219.731366"/>
     <use style="fill:#1f77b4;stroke:#1f77b4;" x="180.154433" xlink:href="#mfd4c2959ab" y="190.410264"/>
     <use style="fill:#1f77b4;stroke:#1f77b4;" x="136.489075" xlink:href="#mfd4c2959ab" y="134.211484"/>
     <use style="fill:#1f77b4;stroke:#1f77b4;" x="227.616778" xlink:href="#mfd4c2959ab" y="251.495894"/>
     <use style="fill:#1f77b4;stroke:#1f77b4;" x="239.007741" xlink:href="#mfd4c2959ab" y="266.156445"/>
     <use style="fill:#1f77b4;stroke:#1f77b4;" x="193.443889" xlink:href="#mfd4c2959ab" y="207.51424"/>
     <use style="fill:#1f77b4;stroke:#1f77b4;" x="197.240877" xlink:href="#mfd4c2959ab" y="212.401091"/>
     <use style="fill:#1f77b4;stroke:#1f77b4;" x="210.530334" xlink:href="#mfd4c2959ab" y="229.505067"/>
     <use style="fill:#1f77b4;stroke:#1f77b4;" x="157.372507" xlink:href="#mfd4c2959ab" y="161.089161"/>
     <use style="fill:#1f77b4;stroke:#1f77b4;" x="197.240877" xlink:href="#mfd4c2959ab" y="212.401091"/>
     <use style="fill:#1f77b4;stroke:#1f77b4;" x="193.443889" xlink:href="#mfd4c2959ab" y="207.51424"/>
    </g>
   </g>
   <g id="matplotlib.axis_1">
    <g id="xtick_1">
     <g id="line2d_1">
      <path clip-path="url(#p8a921b4910)" d="M 98.519199 307.584 
L 98.519199 41.472 
" style="fill:none;stroke:#b0b0b0;stroke-linecap:square;stroke-width:0.8;"/>
     </g>
     <g id="line2d_2">
      <defs>
       <path d="M 0 0 
L 0 3.5 
" id="m0a18c024b0" style="stroke:#000000;stroke-width:0.8;"/>
      </defs>
      <g>
       <use style="stroke:#000000;stroke-width:0.8;" x="98.519199" xlink:href="#m0a18c024b0" y="307.584"/>
      </g>
     </g>
     <g id="text_1">
      <!-- −200 -->
      <defs>
       <path d="M 10.59375 35.5 
L 73.1875 35.5 
L 73.1875 27.203125 
L 10.59375 27.203125 
z
" id="DejaVuSans-8722"/>
       <path d="M 19.1875 8.296875 
L 53.609375 8.296875 
L 53.609375 0 
L 7.328125 0 
L 7.328125 8.296875 
Q 12.9375 14.109375 22.625 23.890625 
Q 32.328125 33.6875 34.8125 36.53125 
Q 39.546875 41.84375 41.421875 45.53125 
Q 43.3125 49.21875 43.3125 52.78125 
Q 43.3125 58.59375 39.234375 62.25 
Q 35.15625 65.921875 28.609375 65.921875 
Q 23.96875 65.921875 18.8125 64.3125 
Q 13.671875 62.703125 7.8125 59.421875 
L 7.8125 69.390625 
Q 13.765625 71.78125 18.9375 73 
Q 24.125 74.21875 28.421875 74.21875 
Q 39.75 74.21875 46.484375 68.546875 
Q 53.21875 62.890625 53.21875 53.421875 
Q 53.21875 48.921875 51.53125 44.890625 
Q 49.859375 40.875 45.40625 35.40625 
Q 44.1875 33.984375 37.640625 27.21875 
Q 31.109375 20.453125 19.1875 8.296875 
z
" id="DejaVuSans-50"/>
       <path d="M 31.78125 66.40625 
Q 24.171875 66.40625 20.328125 58.90625 
Q 16.5 51.421875 16.5 36.375 
Q 16.5 21.390625 20.328125 13.890625 
Q 24.171875 6.390625 31.78125 6.390625 
Q 39.453125 6.390625 43.28125 13.890625 
Q 47.125 21.390625 47.125 36.375 
Q 47.125 51.421875 43.28125 58.90625 
Q 39.453125 66.40625 31.78125 66.40625 
z
M 31.78125 74.21875 
Q 44.046875 74.21875 50.515625 64.515625 
Q 56.984375 54.828125 56.984375 36.375 
Q 56.984375 17.96875 50.515625 8.265625 
Q 44.046875 -1.421875 31.78125 -1.421875 
Q 19.53125 -1.421875 13.0625 8.265625 
Q 6.59375 17.96875 6.59375 36.375 
Q 6.59375 54.828125 13.0625 64.515625 
Q 19.53125 74.21875 31.78125 74.21875 
z
" id="DejaVuSans-48"/>
      </defs>
      <g transform="translate(84.785605 322.182437)scale(0.1 -0.1)">
       <use xlink:href="#DejaVuSans-8722"/>
       <use x="83.789062" xlink:href="#DejaVuSans-50"/>
       <use x="147.412109" xlink:href="#DejaVuSans-48"/>
       <use x="211.035156" xlink:href="#DejaVuSans-48"/>
      </g>
     </g>
    </g>
    <g id="xtick_2">
     <g id="line2d_3">
      <path clip-path="url(#p8a921b4910)" d="M 145.981544 307.584 
L 145.981544 41.472 
" style="fill:none;stroke:#b0b0b0;stroke-linecap:square;stroke-width:0.8;"/>
     </g>
     <g id="line2d_4">
      <g>
       <use style="stroke:#000000;stroke-width:0.8;" x="145.981544" xlink:href="#m0a18c024b0" y="307.584"/>
      </g>
     </g>
     <g id="text_2">
      <!-- −175 -->
      <defs>
       <path d="M 12.40625 8.296875 
L 28.515625 8.296875 
L 28.515625 63.921875 
L 10.984375 60.40625 
L 10.984375 69.390625 
L 28.421875 72.90625 
L 38.28125 72.90625 
L 38.28125 8.296875 
L 54.390625 8.296875 
L 54.390625 0 
L 12.40625 0 
z
" id="DejaVuSans-49"/>
       <path d="M 8.203125 72.90625 
L 55.078125 72.90625 
L 55.078125 68.703125 
L 28.609375 0 
L 18.3125 0 
L 43.21875 64.59375 
L 8.203125 64.59375 
z
" id="DejaVuSans-55"/>
       <path d="M 10.796875 72.90625 
L 49.515625 72.90625 
L 49.515625 64.59375 
L 19.828125 64.59375 
L 19.828125 46.734375 
Q 21.96875 47.46875 24.109375 47.828125 
Q 26.265625 48.1875 28.421875 48.1875 
Q 40.625 48.1875 47.75 41.5 
Q 54.890625 34.8125 54.890625 23.390625 
Q 54.890625 11.625 47.5625 5.09375 
Q 40.234375 -1.421875 26.90625 -1.421875 
Q 22.3125 -1.421875 17.546875 -0.640625 
Q 12.796875 0.140625 7.71875 1.703125 
L 7.71875 11.625 
Q 12.109375 9.234375 16.796875 8.0625 
Q 21.484375 6.890625 26.703125 6.890625 
Q 35.15625 6.890625 40.078125 11.328125 
Q 45.015625 15.765625 45.015625 23.390625 
Q 45.015625 31 40.078125 35.4375 
Q 35.15625 39.890625 26.703125 39.890625 
Q 22.75 39.890625 18.8125 39.015625 
Q 14.890625 38.140625 10.796875 36.28125 
z
" id="DejaVuSans-53"/>
      </defs>
      <g transform="translate(132.24795 322.182437)scale(0.1 -0.1)">
       <use xlink:href="#DejaVuSans-8722"/>
       <use x="83.789062" xlink:href="#DejaVuSans-49"/>
       <use x="147.412109" xlink:href="#DejaVuSans-55"/>
       <use x="211.035156" xlink:href="#DejaVuSans-53"/>
      </g>
     </g>
    </g>
    <g id="xtick_3">
     <g id="line2d_5">
      <path clip-path="url(#p8a921b4910)" d="M 193.443889 307.584 
L 193.443889 41.472 
" style="fill:none;stroke:#b0b0b0;stroke-linecap:square;stroke-width:0.8;"/>
     </g>
     <g id="line2d_6">
      <g>
       <use style="stroke:#000000;stroke-width:0.8;" x="193.443889" xlink:href="#m0a18c024b0" y="307.584"/>
      </g>
     </g>
     <g id="text_3">
      <!-- −150 -->
      <g transform="translate(179.710296 322.182437)scale(0.1 -0.1)">
       <use xlink:href="#DejaVuSans-8722"/>
       <use x="83.789062" xlink:href="#DejaVuSans-49"/>
       <use x="147.412109" xlink:href="#DejaVuSans-53"/>
       <use x="211.035156" xlink:href="#DejaVuSans-48"/>
      </g>
     </g>
    </g>
    <g id="xtick_4">
     <g id="line2d_7">
      <path clip-path="url(#p8a921b4910)" d="M 240.906235 307.584 
L 240.906235 41.472 
" style="fill:none;stroke:#b0b0b0;stroke-linecap:square;stroke-width:0.8;"/>
     </g>
     <g id="line2d_8">
      <g>
       <use style="stroke:#000000;stroke-width:0.8;" x="240.906235" xlink:href="#m0a18c024b0" y="307.584"/>
      </g>
     </g>
     <g id="text_4">
      <!-- −125 -->
      <g transform="translate(227.172641 322.182437)scale(0.1 -0.1)">
       <use xlink:href="#DejaVuSans-8722"/>
       <use x="83.789062" xlink:href="#DejaVuSans-49"/>
       <use x="147.412109" xlink:href="#DejaVuSans-50"/>
       <use x="211.035156" xlink:href="#DejaVuSans-53"/>
      </g>
     </g>
    </g>
    <g id="xtick_5">
     <g id="line2d_9">
      <path clip-path="url(#p8a921b4910)" d="M 288.36858 307.584 
L 288.36858 41.472 
" style="fill:none;stroke:#b0b0b0;stroke-linecap:square;stroke-width:0.8;"/>
     </g>
     <g id="line2d_10">
      <g>
       <use style="stroke:#000000;stroke-width:0.8;" x="288.36858" xlink:href="#m0a18c024b0" y="307.584"/>
      </g>
     </g>
     <g id="text_5">
      <!-- −100 -->
      <g transform="translate(274.634986 322.182437)scale(0.1 -0.1)">
       <use xlink:href="#DejaVuSans-8722"/>
       <use x="83.789062" xlink:href="#DejaVuSans-49"/>
       <use x="147.412109" xlink:href="#DejaVuSans-48"/>
       <use x="211.035156" xlink:href="#DejaVuSans-48"/>
      </g>
     </g>
    </g>
    <g id="xtick_6">
     <g id="line2d_11">
      <path clip-path="url(#p8a921b4910)" d="M 335.830925 307.584 
L 335.830925 41.472 
" style="fill:none;stroke:#b0b0b0;stroke-linecap:square;stroke-width:0.8;"/>
     </g>
     <g id="line2d_12">
      <g>
       <use style="stroke:#000000;stroke-width:0.8;" x="335.830925" xlink:href="#m0a18c024b0" y="307.584"/>
      </g>
     </g>
     <g id="text_6">
      <!-- −75 -->
      <g transform="translate(325.278581 322.182437)scale(0.1 -0.1)">
       <use xlink:href="#DejaVuSans-8722"/>
       <use x="83.789062" xlink:href="#DejaVuSans-55"/>
       <use x="147.412109" xlink:href="#DejaVuSans-53"/>
      </g>
     </g>
    </g>
    <g id="xtick_7">
     <g id="line2d_13">
      <path clip-path="url(#p8a921b4910)" d="M 383.29327 307.584 
L 383.29327 41.472 
" style="fill:none;stroke:#b0b0b0;stroke-linecap:square;stroke-width:0.8;"/>
     </g>
     <g id="line2d_14">
      <g>
       <use style="stroke:#000000;stroke-width:0.8;" x="383.29327" xlink:href="#m0a18c024b0" y="307.584"/>
      </g>
     </g>
     <g id="text_7">
      <!-- −50 -->
      <g transform="translate(372.740927 322.182437)scale(0.1 -0.1)">
       <use xlink:href="#DejaVuSans-8722"/>
       <use x="83.789062" xlink:href="#DejaVuSans-53"/>
       <use x="147.412109" xlink:href="#DejaVuSans-48"/>
      </g>
     </g>
    </g>
    <g id="text_8">
     <!-- f1 -->
     <defs>
      <path d="M 37.109375 75.984375 
L 37.109375 68.5 
L 28.515625 68.5 
Q 23.6875 68.5 21.796875 66.546875 
Q 19.921875 64.59375 19.921875 59.515625 
L 19.921875 54.6875 
L 34.71875 54.6875 
L 34.71875 47.703125 
L 19.921875 47.703125 
L 19.921875 0 
L 10.890625 0 
L 10.890625 47.703125 
L 2.296875 47.703125 
L 2.296875 54.6875 
L 10.890625 54.6875 
L 10.890625 58.5 
Q 10.890625 67.625 15.140625 71.796875 
Q 19.390625 75.984375 28.609375 75.984375 
z
" id="DejaVuSans-102"/>
     </defs>
     <g transform="translate(231.218594 335.860562)scale(0.1 -0.1)">
      <use xlink:href="#DejaVuSans-102"/>
      <use x="35.205078" xlink:href="#DejaVuSans-49"/>
     </g>
    </g>
   </g>
   <g id="matplotlib.axis_2">
    <g id="ytick_1">
     <g id="line2d_15">
      <path clip-path="url(#p8a921b4910)" d="M 57.6 297.920972 
L 414.72 297.920972 
" style="fill:none;stroke:#b0b0b0;stroke-linecap:square;stroke-width:0.8;"/>
     </g>
     <g id="line2d_16">
      <defs>
       <path d="M 0 0 
L -3.5 0 
" id="m3afb97b6b7" style="stroke:#000000;stroke-width:0.8;"/>
      </defs>
      <g>
       <use style="stroke:#000000;stroke-width:0.8;" x="57.6" xlink:href="#m3afb97b6b7" y="297.920972"/>
      </g>
     </g>
     <g id="text_9">
      <!-- 0 -->
      <g transform="translate(44.2375 301.720191)scale(0.1 -0.1)">
       <use xlink:href="#DejaVuSans-48"/>
      </g>
     </g>
    </g>
    <g id="ytick_2">
     <g id="line2d_17">
      <path clip-path="url(#p8a921b4910)" d="M 57.6 249.052468 
L 414.72 249.052468 
" style="fill:none;stroke:#b0b0b0;stroke-linecap:square;stroke-width:0.8;"/>
     </g>
     <g id="line2d_18">
      <g>
       <use style="stroke:#000000;stroke-width:0.8;" x="57.6" xlink:href="#m3afb97b6b7" y="249.052468"/>
      </g>
     </g>
     <g id="text_10">
      <!-- 20 -->
      <g transform="translate(37.875 252.851687)scale(0.1 -0.1)">
       <use xlink:href="#DejaVuSans-50"/>
       <use x="63.623047" xlink:href="#DejaVuSans-48"/>
      </g>
     </g>
    </g>
    <g id="ytick_3">
     <g id="line2d_19">
      <path clip-path="url(#p8a921b4910)" d="M 57.6 200.183965 
L 414.72 200.183965 
" style="fill:none;stroke:#b0b0b0;stroke-linecap:square;stroke-width:0.8;"/>
     </g>
     <g id="line2d_20">
      <g>
       <use style="stroke:#000000;stroke-width:0.8;" x="57.6" xlink:href="#m3afb97b6b7" y="200.183965"/>
      </g>
     </g>
     <g id="text_11">
      <!-- 40 -->
      <defs>
       <path d="M 37.796875 64.3125 
L 12.890625 25.390625 
L 37.796875 25.390625 
z
M 35.203125 72.90625 
L 47.609375 72.90625 
L 47.609375 25.390625 
L 58.015625 25.390625 
L 58.015625 17.1875 
L 47.609375 17.1875 
L 47.609375 0 
L 37.796875 0 
L 37.796875 17.1875 
L 4.890625 17.1875 
L 4.890625 26.703125 
z
" id="DejaVuSans-52"/>
      </defs>
      <g transform="translate(37.875 203.983183)scale(0.1 -0.1)">
       <use xlink:href="#DejaVuSans-52"/>
       <use x="63.623047" xlink:href="#DejaVuSans-48"/>
      </g>
     </g>
    </g>
    <g id="ytick_4">
     <g id="line2d_21">
      <path clip-path="url(#p8a921b4910)" d="M 57.6 151.315461 
L 414.72 151.315461 
" style="fill:none;stroke:#b0b0b0;stroke-linecap:square;stroke-width:0.8;"/>
     </g>
     <g id="line2d_22">
      <g>
       <use style="stroke:#000000;stroke-width:0.8;" x="57.6" xlink:href="#m3afb97b6b7" y="151.315461"/>
      </g>
     </g>
     <g id="text_12">
      <!-- 60 -->
      <defs>
       <path d="M 33.015625 40.375 
Q 26.375 40.375 22.484375 35.828125 
Q 18.609375 31.296875 18.609375 23.390625 
Q 18.609375 15.53125 22.484375 10.953125 
Q 26.375 6.390625 33.015625 6.390625 
Q 39.65625 6.390625 43.53125 10.953125 
Q 47.40625 15.53125 47.40625 23.390625 
Q 47.40625 31.296875 43.53125 35.828125 
Q 39.65625 40.375 33.015625 40.375 
z
M 52.59375 71.296875 
L 52.59375 62.3125 
Q 48.875 64.0625 45.09375 64.984375 
Q 41.3125 65.921875 37.59375 65.921875 
Q 27.828125 65.921875 22.671875 59.328125 
Q 17.53125 52.734375 16.796875 39.40625 
Q 19.671875 43.65625 24.015625 45.921875 
Q 28.375 48.1875 33.59375 48.1875 
Q 44.578125 48.1875 50.953125 41.515625 
Q 57.328125 34.859375 57.328125 23.390625 
Q 57.328125 12.15625 50.6875 5.359375 
Q 44.046875 -1.421875 33.015625 -1.421875 
Q 20.359375 -1.421875 13.671875 8.265625 
Q 6.984375 17.96875 6.984375 36.375 
Q 6.984375 53.65625 15.1875 63.9375 
Q 23.390625 74.21875 37.203125 74.21875 
Q 40.921875 74.21875 44.703125 73.484375 
Q 48.484375 72.75 52.59375 71.296875 
z
" id="DejaVuSans-54"/>
      </defs>
      <g transform="translate(37.875 155.114679)scale(0.1 -0.1)">
       <use xlink:href="#DejaVuSans-54"/>
       <use x="63.623047" xlink:href="#DejaVuSans-48"/>
      </g>
     </g>
    </g>
    <g id="ytick_5">
     <g id="line2d_23">
      <path clip-path="url(#p8a921b4910)" d="M 57.6 102.446957 
L 414.72 102.446957 
" style="fill:none;stroke:#b0b0b0;stroke-linecap:square;stroke-width:0.8;"/>
     </g>
     <g id="line2d_24">
      <g>
       <use style="stroke:#000000;stroke-width:0.8;" x="57.6" xlink:href="#m3afb97b6b7" y="102.446957"/>
      </g>
     </g>
     <g id="text_13">
      <!-- 80 -->
      <defs>
       <path d="M 31.78125 34.625 
Q 24.75 34.625 20.71875 30.859375 
Q 16.703125 27.09375 16.703125 20.515625 
Q 16.703125 13.921875 20.71875 10.15625 
Q 24.75 6.390625 31.78125 6.390625 
Q 38.8125 6.390625 42.859375 10.171875 
Q 46.921875 13.96875 46.921875 20.515625 
Q 46.921875 27.09375 42.890625 30.859375 
Q 38.875 34.625 31.78125 34.625 
z
M 21.921875 38.8125 
Q 15.578125 40.375 12.03125 44.71875 
Q 8.5 49.078125 8.5 55.328125 
Q 8.5 64.0625 14.71875 69.140625 
Q 20.953125 74.21875 31.78125 74.21875 
Q 42.671875 74.21875 48.875 69.140625 
Q 55.078125 64.0625 55.078125 55.328125 
Q 55.078125 49.078125 51.53125 44.71875 
Q 48 40.375 41.703125 38.8125 
Q 48.828125 37.15625 52.796875 32.3125 
Q 56.78125 27.484375 56.78125 20.515625 
Q 56.78125 9.90625 50.3125 4.234375 
Q 43.84375 -1.421875 31.78125 -1.421875 
Q 19.734375 -1.421875 13.25 4.234375 
Q 6.78125 9.90625 6.78125 20.515625 
Q 6.78125 27.484375 10.78125 32.3125 
Q 14.796875 37.15625 21.921875 38.8125 
z
M 18.3125 54.390625 
Q 18.3125 48.734375 21.84375 45.5625 
Q 25.390625 42.390625 31.78125 42.390625 
Q 38.140625 42.390625 41.71875 45.5625 
Q 45.3125 48.734375 45.3125 54.390625 
Q 45.3125 60.0625 41.71875 63.234375 
Q 38.140625 66.40625 31.78125 66.40625 
Q 25.390625 66.40625 21.84375 63.234375 
Q 18.3125 60.0625 18.3125 54.390625 
z
" id="DejaVuSans-56"/>
      </defs>
      <g transform="translate(37.875 106.246176)scale(0.1 -0.1)">
       <use xlink:href="#DejaVuSans-56"/>
       <use x="63.623047" xlink:href="#DejaVuSans-48"/>
      </g>
     </g>
    </g>
    <g id="ytick_6">
     <g id="line2d_25">
      <path clip-path="url(#p8a921b4910)" d="M 57.6 53.578453 
L 414.72 53.578453 
" style="fill:none;stroke:#b0b0b0;stroke-linecap:square;stroke-width:0.8;"/>
     </g>
     <g id="line2d_26">
      <g>
       <use style="stroke:#000000;stroke-width:0.8;" x="57.6" xlink:href="#m3afb97b6b7" y="53.578453"/>
      </g>
     </g>
     <g id="text_14">
      <!-- 100 -->
      <g transform="translate(31.5125 57.377672)scale(0.1 -0.1)">
       <use xlink:href="#DejaVuSans-49"/>
       <use x="63.623047" xlink:href="#DejaVuSans-48"/>
       <use x="127.246094" xlink:href="#DejaVuSans-48"/>
      </g>
     </g>
    </g>
    <g id="text_15">
     <!-- f2 -->
     <g transform="translate(25.432812 179.469406)rotate(-90)scale(0.1 -0.1)">
      <use xlink:href="#DejaVuSans-102"/>
      <use x="35.205078" xlink:href="#DejaVuSans-50"/>
     </g>
    </g>
   </g>
   <g id="patch_3">
    <path d="M 57.6 307.584 
L 57.6 41.472 
" style="fill:none;stroke:#000000;stroke-linecap:square;stroke-linejoin:miter;stroke-width:0.8;"/>
   </g>
   <g id="patch_4">
    <path d="M 414.72 307.584 
L 414.72 41.472 
" style="fill:none;stroke:#000000;stroke-linecap:square;stroke-linejoin:miter;stroke-width:0.8;"/>
   </g>
   <g id="patch_5">
    <path d="M 57.6 307.584 
L 414.72 307.584 
" style="fill:none;stroke:#000000;stroke-linecap:square;stroke-linejoin:miter;stroke-width:0.8;"/>
   </g>
   <g id="patch_6">
    <path d="M 57.6 41.472 
L 414.72 41.472 
" style="fill:none;stroke:#000000;stroke-linecap:square;stroke-linejoin:miter;stroke-width:0.8;"/>
   </g>
  </g>
 </g>
 <defs>
  <clipPath id="p8a921b4910">
   <rect height="266.112" width="357.12" x="57.6" y="41.472"/>
  </clipPath>
 </defs>
</svg>
